# xmcd
#
# Track frame offsets: 
#        150
#        14825
#        27192
#        45961
#        67144
#        85815
#        102757
#        119206
#        134123
#        144407
#        162173
#
# Disc length: 2389 seconds
#
# Revision: 0
# Processed by: cddbd v1.5.2PL0 Copyright (c) Steve Scherf et al.
# Submitted via: ExactAudioCopy v1.0b3
#
DISCID=9d09530b
DTITLE=Dave Schmidt and Shot Down Blues Band - Shot Down By a Woman
DYEAR=2013
DGENRE=Blues
TTITLE0=Think You've Got the Blues
TTITLE1=Southwest Blues
TTITLE2=Shot Down By a Woman
TTITLE3=One Way Love
TTITLE4=Fly By
TTITLE5=So Hard On Me
TTITLE6=Don't Tell Me (I'm Not Right for You)
TTITLE7=Iggy Shuffle
TTITLE8=Text Message Blues
TTITLE9=Dipsy Doodle
TTITLE10=Mojo Man
EXTD=
EXTT0=
EXTT1=
EXTT2=
EXTT3=
EXTT4=
EXTT5=
EXTT6=
EXTT7=
EXTT8=
EXTT9=
EXTT10=
PLAYORDER=
